<?xml version="1.0" encoding="utf-8"?>
<svg xmlns="http://www.w3.org/2000/svg" width="282.289" height="197.9" viewBox="0 0 282.289 197.9">
  <g transform="matrix(1, 0, 0, 1, 18.347, 182.793002)">
    <path d="M87.52,871.98H98.213v2.233H94.042v12.871h-2.23V874.213H87.52Z" transform="translate(-87.52 -871.978)" fill-rule="evenodd" style="fill: rgb(96, 196, 176);"/>
    <path d="M269.3,880.218v4.635h6.866v2.231h-9.1v-15.1h9.1v2.233H269.3v3.775h6.866v2.231Z" transform="translate(-229.43 -871.978)" fill-rule="evenodd" style="fill: rgb(96, 196, 176);"/>
    <path d="M441.05,871.98h2.231v12.874h6.866v2.231h-9.1Z" transform="translate(-366.938 -871.978)" fill-rule="evenodd" style="fill: rgb(96, 196, 176);"/>
    <path d="M615.213,880.218v4.635h6.865v2.231h-9.1v-15.1h9.1v2.233h-6.865v3.775h6.865v2.231Z" transform="translate(-502.825 -871.978)" fill-rule="evenodd" style="fill: rgb(96, 196, 176);"/>
    <path d="M797.326,884.846v2.23h-6.694q-3.261,0-3.262-3.262v-8.583q0-3.261,3.262-3.262h6.694v2.23h-6.694a.91.91,0,0,0-1.029,1.03v8.583a.91.91,0,0,0,1.029,1.029h6.694Z" transform="translate(-640.657 -871.97)" fill-rule="evenodd" style="fill: rgb(96, 196, 176);"/>
    <path d="M965.77,875.242q0-3.261,3.262-3.262h5.149q3.261,0,3.262,3.262v8.616q0,3.227-3.262,3.226h-5.149q-3.261,0-3.262-3.262V875.24h0Zm8.41,9.612h0c.688,0,1.029-.331,1.029-1v-8.616a.91.91,0,0,0-1.029-1.029h-5.149A.909.909,0,0,0,968,875.242v8.583a.91.91,0,0,0,1.029,1.029Z" transform="translate(-781.658 -871.978)" fill-rule="evenodd" style="fill: rgb(96, 196, 176);"/>
    <path d="M1152.45,871.98h2.092l4.549,11.57,4.513-11.57h2.095v15.1h-2.231v-8.821l-3.45,8.821h-1.87l-3.468-8.821v8.821h-2.231Z" transform="translate(-929.203 -871.978)" fill-rule="evenodd" style="fill: rgb(96, 196, 176);"/>
  </g>
  <g transform="matrix(1, 0, 0, 1, 0, 71.433)">
    <path d="M28.775,398.309Q0,398.309,0,369.535T28.775,340.76H72.693v19.687H28.775q-9.088,0-9.086,9.086t9.086,9.088H51.491q28.772,0,28.775,28.774T51.491,436.169H6.209V416.482H51.491q9.088,0,9.086-9.086t-9.086-9.086H28.775Z" transform="translate(0 -340.76)" fill-rule="evenodd" style="fill: rgb(96, 196, 176);"/>
    <path d="M531.035,416.482v19.687H479.545q-28.776,0-28.775-28.775v-37.86q0-28.772,28.775-28.775h30.288q28.772,0,28.774,28.775v.3q0,28.474-28.774,28.47H476.515V378.62h33.317q9.087,0,9.085-8.784v-.3q0-9.088-9.085-9.086H479.545q-9.088,0-9.085,9.086v37.86q0,9.088,9.085,9.086h51.491Z" transform="translate(-356.273 -340.76)" fill-rule="evenodd" style="fill: rgb(96, 196, 176);"/>
    <path d="M935.142,360.447V340.76h51.49q28.772,0,28.775,28.775v37.86q0,28.776-28.775,28.775H956.344q-28.776,0-28.775-28.775v-.3q0-28.471,28.775-28.471h33.318v19.687H956.344q-9.088,0-9.085,8.784v.3q0,9.088,9.085,9.086h30.288q9.088,0,9.086-9.086v-37.86q0-9.088-9.086-9.086h-51.49Z" transform="translate(-733.119 -340.76)" fill-rule="evenodd" style="fill: rgb(96, 196, 176);"/>
  </g>
  <g transform="matrix(1, 0, 0, 1, 11.926, 0)">
    <path d="M1067.634,25.509c2.075-3.113-.232-8-3.241-6.855a128.425,128.425,0,0,1-22.223,6.281,123.637,123.637,0,0,1-34.2,1.579q10.377,15.182,20.752,30.366c4.876,7.134,13.212,7.176,17.937.09l20.976-31.46Z" transform="translate(-808.589 -14.61)" fill="#9ac73f" fill-rule="evenodd"/>
    <path d="M481.41,47.736a59.093,59.093,0,0,1,21.077-7.662,55.078,55.078,0,0,1,18.345.281L508.964,22.991c-3.574-5.228-9.729-5.044-12.981.392L481.41,47.738Z" transform="translate(-392.415 -15.165)" fill="#f04f47" fill-rule="evenodd"/>
    <path d="M698.654,108.189,716.766,77.92a69.013,69.013,0,0,1-23.538,9.06,63.948,63.948,0,0,1-23.768-.2q7.462,10.921,14.926,21.84C688.312,114.365,695.08,114.162,698.654,108.189Z" transform="translate(-541.043 -61.587)" fill="#60c4b0" fill-rule="evenodd"/>
    <path d="M57.628,67.242c-1.818,2.419-.019,6.557,2.467,5.664a141.191,141.191,0,0,1,25.731-6.622,136.7,136.7,0,0,1,28.517-1.493L96.263,38.336c-4.39-6.423-11.826-6.754-16.358-.725Z" transform="translate(-56.887 -26.317)" fill="#ffcf1f" fill-rule="evenodd"/>
    <path d="M351.212,174.256l11.3-18.876a45.677,45.677,0,0,1-15.641,6.061,42.235,42.235,0,0,1-15.9-.155l9.094,13.306c3.069,4.49,8.356,4.331,11.15-.335Z" transform="translate(-273.513 -122.809)" fill="#fba92d" fill-rule="evenodd"/>
    <path d="M903.063,3.071,895.12,16.343a31,31,0,0,1,12.908-5,28.644,28.644,0,0,1,10.745.576q-3.119-4.563-6.239-9.128c-2.608-3.815-7.1-3.681-9.473.285Z" transform="translate(-719.397 -0.01)" fill="#008891" fill-rule="evenodd"/>
  </g>
</svg>